# Blender 3.3.1
# www.blender.org
mtllib windows.mtl
o główna_cz.001
v -1.833368 2.936568 2.357774
v -1.833368 4.932268 2.357774
v -1.833368 2.936570 -0.702917
v -1.463835 4.932268 -1.091814
v -1.872160 4.570795 -0.721814
v 2.404816 4.932268 -1.091814
v 2.779563 4.932268 -0.721814
v 2.779564 4.932268 2.351261
v -1.113644 8.206421 2.357775
v -1.113644 8.206421 -0.721814
v 2.169028 8.729822 -0.721814
v 1.794292 8.729750 -1.091814
v -0.717517 8.329256 -1.091814
v 2.717290 5.183111 2.632129
v 2.169028 8.729822 2.579819
v -1.364051 4.921432 2.644418
v -1.364034 3.082530 2.644418
v -0.633400 8.246994 2.644419
v 2.488891 5.179282 2.644418
v 2.326016 4.988130 2.644418
v 1.939301 8.597754 2.644419
vn -0.9779 0.2092 -0.0061
vn -0.9999 -0.0106 0.0069
vn 0.9873 0.1585 0.0033
vn -0.0000 -0.0000 -1.0000
vn -0.0000 -0.0000 1.0000
vt 0.223502 0.319408
vt 0.187991 0.319407
vt 0.223502 0.264942
vt 0.196665 0.525795
vt 0.194413 0.264607
vt 0.198319 0.456971
vt 0.063513 0.465709
vt 0.008827 0.465692
vt 0.129908 0.319357
vt 0.129908 0.264555
vt 0.063513 0.533211
vt 0.130499 0.466209
vt 0.136551 0.511066
vt 0.003829 0.470147
vt 0.004760 0.533192
vt 0.222427 0.455255
vt 0.218007 0.422831
vt 0.243303 0.512135
vt 0.290982 0.450539
vt 0.287651 0.447560
vt 0.289509 0.512135
s 0
usemtl Material.002
f 5/5/1 2/2/1 9/9/1 10/10/1
f 1/1/2 2/2/2 5/5/2 3/3/2
f 14/14/3 8/8/3 7/7/3 11/11/3 15/15/3
f 6/6/4 4/4/4 13/13/4 12/12/4
f 17/17/5 20/20/5 16/16/5
f 16/16/5 20/20/5 19/19/5 21/21/5 18/18/5
